<svg xmlns="http://www.w3.org/2000/svg" xmlns:xlink="http://www.w3.org/1999/xlink" viewBox="0 0 218.67 88.1"><defs><style>.cls-1,.cls-4{fill:none;}.cls-2{font-size:60.73px;letter-spacing:0.03em;}.cls-2,.cls-3,.cls-6{fill:#fff;}.cls-2,.cls-6{font-family:SegoeUI-Semilight, Segoe UI;}.cls-4{stroke:#fff;stroke-miterlimit:10;stroke-width:2px;}.cls-5{clip-path:url(#clip-path);}.cls-6{font-size:27.08px;letter-spacing:0.03em;}</style><clipPath id="clip-path"><rect class="cls-1" x="43.67" y="13.1" width="24.76" height="24.25"/></clipPath></defs><title>Asset 8</title><g id="Layer_2" data-name="Layer 2"><g id="Layer_1-2" data-name="Layer 1"><text class="cls-2" transform="translate(94.5 51.63) scale(0.99 1)">GDC</text><path class="cls-1" d="M60.1,45H47.73a114.84,114.84,0,0,1-1.51,17.88l10.24,0A49,49,0,0,0,60.1,45Z"/><path class="cls-1" d="M28.92,62.89l15.1,0A110.63,110.63,0,0,0,45.56,45L27.44,45A109.85,109.85,0,0,0,28.92,62.89Z"/><path class="cls-1" d="M26.68,25.5l-8.8,0a49.14,49.14,0,0,0-3.41,17.33l10.8,0A115.24,115.24,0,0,1,26.68,25.5Z"/><path class="cls-1" d="M18.05,62.87l8.67,0A113.09,113.09,0,0,1,25.27,45L14.46,45A49.21,49.21,0,0,0,18.05,62.87Z"/><path class="cls-1" d="M72.39,42.9v0H62.27v0Z"/><path class="cls-1" d="M19.51,17.71a28.4,28.4,0,0,1,6.44-7,34.92,34.92,0,0,0-13.46,8.39A36.41,36.41,0,0,0,8.85,23.3h7.6A37.6,37.6,0,0,1,19.51,17.71Z"/><path class="cls-1" d="M27.44,42.83h9.28V25.51H28.88A111.78,111.78,0,0,0,27.44,42.83Z"/><path class="cls-1" d="M60.11,42.86h-9l9,0Z"/><path class="cls-1" d="M30.4,18.61c-.41,1.47-.79,3.05-1.12,4.72h7.44V8.83l-.6,0C34.13,9.31,32,12.88,30.4,18.61Z"/><path class="cls-1" d="M21.31,18.9a37,37,0,0,0-2.48,4.42h8.24c.37-1.88.78-3.66,1.24-5.3a29,29,0,0,1,3.45-8.17C27.86,11.36,24.27,14.45,21.31,18.9Z"/><path class="cls-1" d="M55.47,65.09H45.82c-.34,1.67-.72,3.26-1.14,4.75a26.44,26.44,0,0,1-3.91,8.8C46.75,77.2,52,72.2,55.47,65.09Z"/><path class="cls-1" d="M58.77,62.93h8a34.91,34.91,0,0,0,5.58-17.88H62.27A51.07,51.07,0,0,1,58.77,62.93Z"/><path class="cls-1" d="M15.55,25.48H7.4A34.87,34.87,0,0,0,2.18,42.79l10.12,0A51.92,51.92,0,0,1,15.55,25.48Z"/><path class="cls-1" d="M48.54,77.2A35.33,35.33,0,0,0,65.28,65.11H57.84A32,32,0,0,1,48.54,77.2Z"/><path class="cls-1" d="M12.3,45,2.18,45a34.88,34.88,0,0,0,5.54,17.9h8A51.36,51.36,0,0,1,12.3,45Z"/><path class="cls-1" d="M16.67,65H9.23a35.32,35.32,0,0,0,16.7,12.13A31.93,31.93,0,0,1,16.67,65Z"/><path class="cls-1" d="M43.61,65.08l-14.28,0c.3,1.46.63,2.86,1,4.16C31.93,75,34,78.54,36,79c.21,0,.42,0,.63,0,2.06-.22,4.27-3.84,6-9.79C43,67.93,43.3,66.54,43.61,65.08Z"/><path class="cls-1" d="M27.12,65.05H19C22.12,71.34,26.55,76,31.66,78a28.6,28.6,0,0,1-3.42-8.17C27.83,68.32,27.45,66.73,27.12,65.05Z"/><path class="cls-3" d="M72.39,42.9l-10.12,0v0H60.11v0l-9,0H36.72v0H27.44A111.78,111.78,0,0,1,28.88,25.5h7.84V23.34H29.28c.33-1.67.71-3.25,1.12-4.72,1.62-5.73,3.73-9.3,5.72-9.75l.6,0V6.65h-.17c-.11,0-.25,0-.38,0a37.26,37.26,0,0,0-30,57.74.8.8,0,0,0,.18.27A37.27,37.27,0,0,0,36.06,81.19a2.48,2.48,0,0,0,.38,0h.2c.21,0,.43,0,.65,0a37.27,37.27,0,0,0,30.9-16.44,1.21,1.21,0,0,0,.2-.3A37.11,37.11,0,0,0,74.57,44c0-.37,0-.74,0-1.12H72.39ZM47.73,45H60.1a49,49,0,0,1-3.64,17.89l-10.24,0A114.84,114.84,0,0,0,47.73,45Zm-2.17,0A110.63,110.63,0,0,1,44,62.91l-15.1,0A109.85,109.85,0,0,1,27.44,45ZM28.31,18c-.46,1.64-.87,3.42-1.24,5.3H18.83a37,37,0,0,1,2.48-4.42c3-4.45,6.55-7.54,10.45-9A29,29,0,0,0,28.31,18Zm-3,27a113.09,113.09,0,0,0,1.45,17.89l-8.67,0A49.21,49.21,0,0,1,14.46,45Zm-10.8-2.19a49.14,49.14,0,0,1,3.41-17.33l8.8,0a115.24,115.24,0,0,0-1.41,17.33Zm-2-23.75A34.92,34.92,0,0,1,26,10.67a28.4,28.4,0,0,0-6.44,7,37.6,37.6,0,0,0-3.06,5.6H8.85A36.41,36.41,0,0,1,12.49,19.06ZM7.4,25.47h8.15A51.92,51.92,0,0,0,12.3,42.81l-10.12,0A34.87,34.87,0,0,1,7.4,25.47ZM2.18,45,12.3,45a51.36,51.36,0,0,0,3.44,17.89h-8A34.88,34.88,0,0,1,2.18,45ZM9.23,65h7.44a31.93,31.93,0,0,0,9.26,12.12A35.32,35.32,0,0,1,9.23,65ZM19,65h8.09c.33,1.68.71,3.27,1.12,4.76A28.6,28.6,0,0,0,31.66,78C26.55,76,22.12,71.34,19,65ZM36.65,79c-.21,0-.42,0-.63,0-2-.45-4.09-4-5.69-9.77-.37-1.3-.7-2.7-1-4.16l14.28,0c-.31,1.46-.65,2.85-1,4.16C40.92,75.19,38.71,78.81,36.65,79Zm8-9.2c.42-1.49.8-3.08,1.14-4.75h9.65C52,72.2,46.75,77.2,40.77,78.63A26.44,26.44,0,0,0,44.68,69.83Zm3.86,7.37a32,32,0,0,0,9.3-12.1h7.44A35.33,35.33,0,0,1,48.54,77.2ZM66.8,62.94h-8a51.07,51.07,0,0,0,3.5-17.88H72.38A34.91,34.91,0,0,1,66.8,62.94Z"/><line class="cls-4" x1="37.26" y1="6.65" x2="37.26" y2="43.9"/><g class="cls-5"><path class="cls-3" d="M68.16,13.35a.84.84,0,0,0-.66-.25l-3.86.28a.84.84,0,0,0,.12,1.68l1.6-.12L59.71,20.6,53.14,15a.85.85,0,0,0-1.14.05l-8.09,8.09a.84.84,0,0,0,0,1.19.87.87,0,0,0,.6.25.85.85,0,0,0,.59-.25l7.54-7.54,6.58,5.56a.84.84,0,0,0,1.14,0l6.17-6.19-.13,1.54a.85.85,0,0,0,.77.91h.07a.83.83,0,0,0,.84-.77L68.4,14a.84.84,0,0,0-.24-.66Z"/></g><path class="cls-3" d="M51.17,23a.85.85,0,0,0-.92.18l-3.49,3.5a.82.82,0,0,0-.25.59V36.5a.85.85,0,0,0,.84.84h3.5a.85.85,0,0,0,.84-.84V23.77a.83.83,0,0,0-.52-.78Z"/><path class="cls-3" d="M54.94,23.17a.84.84,0,0,0-1.44.6V36.5a.85.85,0,0,0,.84.84h3.5a.84.84,0,0,0,.84-.84V27.26a.85.85,0,0,0-.24-.59Z"/><path class="cls-3" d="M65.15,23a.83.83,0,0,0-.91.18l-3.5,3.5a.81.81,0,0,0-.24.59v9.23a.84.84,0,0,0,.84.85h3.49a.84.84,0,0,0,.84-.85V23.77a.83.83,0,0,0-.52-.78Z"/><text class="cls-6" transform="translate(98.67 77.47)">INSIGHTS</text><line class="cls-4" x1="86.67" y1="6.77" x2="86.67" y2="80.43"/></g></g></svg>